<?xml version="1.0" encoding="UTF-8"?>
<svg width="100px" height="100px" viewBox="0 0 100 100" version="1.1" xmlns="http://www.w3.org/2000/svg" xmlns:xlink="http://www.w3.org/1999/xlink">
    <!-- Generator: Sketch 43.2 (39069) - http://www.bohemiancoding.com/sketch -->
    <title>audio high</title>
    <desc>Created with Sketch.</desc>
    <defs></defs>
    <g id="Page-1" stroke="none" stroke-width="1" fill="none" fill-rule="evenodd">
        <g id="single-photo-view-copy-2" transform="translate(-590.000000, -288.000000)" fill-rule="nonzero" fill="#FFFFFF">
            <path d="M652.5,386.3625 L652.5,373.20625 C667.03125,368.04375 677.5,354.3125 677.5,338 C677.5,321.7 667.03125,307.9625 652.5,302.8 L652.5,289.6375 C674.05,295.2 690,314.7125 690,338 C690,361.29375 674.05,380.80625 652.5,386.3625 Z M608.75,363 C598.39375,363 590,354.6 590,344.25 L590,331.75 C590,321.39375 598.39375,313 608.75,313 L615,313 L646.25,288 L646.25,388 L615,363 L608.75,363 Z M633.75,363 L633.75,344.25 L633.75,331.75 L633.75,313 L621.25,325.5 L608.75,325.5 C605.29375,325.5 602.5,328.3 602.5,331.75 L602.5,344.25 C602.5,347.70625 605.29375,350.5 608.75,350.5 L621.25,350.5 L633.75,363 Z M671.25,338 C671.25,349.63125 663.26875,359.325 652.5,362.1125 L652.5,348.76875 C656.225,346.6 658.75,342.6125 658.75,338 C658.75,333.3875 656.225,329.4 652.5,327.23125 L652.5,313.8875 C663.26875,316.66875 671.25,326.3625 671.25,338 Z" id="audio-high"></path>
        </g>
    </g>
</svg>